<?xml version="1.0" standalone="no"?>
<!DOCTYPE svg PUBLIC "-//W3C//DTD SVG 20010904//EN"
 "http://www.w3.org/TR/2001/REC-SVG-20010904/DTD/svg10.dtd">
<svg version="1.0" xmlns="http://www.w3.org/2000/svg"
 width="75.000000pt" height="79.000000pt" viewBox="0 0 75.000000 79.000000"
 preserveAspectRatio="xMidYMid meet">

<g transform="translate(0.000000,79.000000) scale(0.100000,-0.100000)"
fill="#000000" stroke="none">
<path d="M244 699 c-96 -37 -162 -125 -171 -229 -19 -210 205 -357 393 -258
l49 25 67 -65 c45 -44 71 -63 82 -59 28 11 18 31 -48 96 l-64 63 27 51 c35 69
37 180 3 244 -32 60 -87 110 -149 133 -67 25 -123 25 -189 -1z m212 -65 c35
-21 56 -44 77 -84 25 -48 28 -63 24 -118 -6 -75 -37 -128 -99 -169 -36 -24
-51 -28 -118 -28 -67 0 -82 4 -118 28 -23 15 -54 46 -69 69 -24 36 -28 52 -28
113 0 62 4 78 30 120 64 104 196 134 301 69z"/>
</g>
</svg>
